<svg xmlns="http://www.w3.org/2000/svg" width="1440" height="900" viewBox="0 0 1440 900">
  <defs>
    <clipPath id="mainClip"><rect x="256" y="64" width="1184" height="836"/></clipPath>
  </defs>

  <!-- ============ SIDEBAR (Support) ============ -->
  <rect width="256" height="900" fill="#242527"/>
  <rect x="20" y="16" width="32" height="32" rx="8" fill="#ffd100"/>
  <text x="36" y="38" font-family="Inter, sans-serif" font-size="12" font-weight="700" fill="#242527" text-anchor="middle">S</text>
  <text x="64" y="30" font-family="Inter, sans-serif" font-size="14" font-weight="600" fill="#fff">SUNDAE</text>
  <text x="64" y="44" font-family="Inter, sans-serif" font-size="10" fill="#7e7f82">Enterprise AI</text>
  <line x1="0" y1="64" x2="256" y2="64" stroke="#fff" stroke-opacity="0.08"/>
  <rect x="12" y="76" width="232" height="40" rx="10" fill="#333436"/>
  <text x="24" y="101" font-family="Inter, Noto Sans Thai, sans-serif" font-size="12" font-weight="500" fill="#d1d1d4">NT Corporation</text>

  <!-- Approvals (active) -->
  <rect x="12" y="132" width="232" height="40" rx="12" fill="rgba(255,209,0,0.2)"/>
  <text x="52" y="157" font-family="Inter, sans-serif" font-size="14" font-weight="500" fill="#ffd100">Approvals</text>
  <text x="52" y="197" font-family="Inter, sans-serif" font-size="14" font-weight="500" fill="#a9aaad">Web Chat</text>
  <text x="52" y="237" font-family="Inter, sans-serif" font-size="14" font-weight="500" fill="#a9aaad">Organization</text>
  <text x="52" y="277" font-family="Inter, sans-serif" font-size="14" font-weight="500" fill="#a9aaad">Profile</text>

  <line x1="0" y1="850" x2="256" y2="850" stroke="#fff" stroke-opacity="0.08"/>
  <circle cx="32" cy="874" r="16" fill="#ffd100"/>
  <text x="32" y="879" font-family="Inter, sans-serif" font-size="11" font-weight="700" fill="#242527" text-anchor="middle">พ</text>
  <text x="56" y="868" font-family="Inter, Noto Sans Thai, sans-serif" font-size="12" font-weight="500" fill="#fff">พิมพ์ใจ ศรีสุข</text>
  <rect x="152" y="858" width="56" height="18" rx="9" fill="#ede9fe"/>
  <text x="180" y="871" font-family="Inter, sans-serif" font-size="9" font-weight="600" fill="#7c3aed" text-anchor="middle">Support</text>
  <text x="56" y="884" font-family="Inter, sans-serif" font-size="10" fill="#7e7f82">support@sundae.local</text>

  <!-- ============ HEADER ============ -->
  <rect x="256" y="0" width="1184" height="64" fill="#fff" fill-opacity="0.9"/>
  <line x1="256" y1="64" x2="1440" y2="64" stroke="#e8e8ea"/>
  <text x="288" y="37" font-family="Inter, sans-serif" font-size="14" fill="#7e7f82">SUNDAE</text>
  <text x="340" y="37" font-family="Inter, sans-serif" font-size="14" fill="#d1d1d4">›</text>
  <text x="356" y="37" font-family="Inter, sans-serif" font-size="14" font-weight="600" fill="#333436">Approvals</text>
  <rect x="1340" y="22" width="72" height="28" rx="14" fill="#ecfdf5"/>
  <circle cx="1356" cy="36" r="3" fill="#10b981"/>
  <text x="1366" y="41" font-family="Inter, sans-serif" font-size="12" font-weight="500" fill="#047857">Online</text>

  <!-- ============ MAIN CONTENT ============ -->
  <g clip-path="url(#mainClip)">
    <rect x="256" y="64" width="1184" height="836" fill="#f6f6f7"/>

    <text x="288" y="108" font-family="Inter, Noto Sans Thai, sans-serif" font-size="24" font-weight="700" fill="#242527">อนุมัติผู้ใช้งาน</text>
    <text x="288" y="130" font-family="Inter, Noto Sans Thai, sans-serif" font-size="14" fill="#6a6b6e">ตรวจสอบและอนุมัติผู้ใช้ที่สมัครเข้าระบบ</text>

    <!-- Stats Card -->
    <rect x="288" y="152" width="1096" height="72" rx="16" fill="#fffbeb" stroke="#fde68a" stroke-width="1"/>
    <text x="312" y="188" font-family="Inter, sans-serif" font-size="24" font-weight="700" fill="#b45309">3</text>
    <text x="312" y="210" font-family="Inter, Noto Sans Thai, sans-serif" font-size="14" fill="#d97706">รออนุมัติ</text>

    <!-- Pending Users Table -->
    <rect x="288" y="244" width="1096" height="340" rx="16" fill="#fff" stroke="#e8e8ea" stroke-width="1"/>
    <text x="312" y="273" font-family="Inter, Noto Sans Thai, sans-serif" font-size="14" font-weight="600" fill="#333436">ผู้ใช้ที่รออนุมัติ</text>
    <line x1="288" y1="288" x2="1384" y2="288" stroke="#e8e8ea"/>

    <!-- User row 1 -->
    <circle cx="320" cy="322" r="20" fill="#fff9cc"/>
    <text x="320" y="327" font-family="Inter, sans-serif" font-size="12" font-weight="700" fill="#997d00" text-anchor="middle">ว</text>
    <text x="352" y="316" font-family="Inter, Noto Sans Thai, sans-serif" font-size="14" font-weight="500" fill="#333436">วิภาวี รักษ์ดี</text>
    <text x="352" y="334" font-family="Inter, sans-serif" font-size="12" fill="#7e7f82">pending@sundae.local</text>
    <text x="1080" y="325" font-family="Inter, sans-serif" font-size="12" fill="#7e7f82">15 มี.ค. 2568</text>
    <rect x="1180" y="306" width="72" height="32" rx="12" fill="#ffd100"/>
    <text x="1216" y="327" font-family="Inter, Noto Sans Thai, sans-serif" font-size="12" font-weight="700" fill="#242527" text-anchor="middle">อนุมัติ</text>
    <rect x="1264" y="306" width="72" height="32" rx="12" fill="#fee2e2"/>
    <text x="1300" y="327" font-family="Inter, Noto Sans Thai, sans-serif" font-size="12" font-weight="700" fill="#b91c1c" text-anchor="middle">ปฏิเสธ</text>

    <!-- User row 2 -->
    <line x1="312" y1="352" x2="1372" y2="352" stroke="#e8e8ea"/>
    <circle cx="320" cy="386" r="20" fill="#fff9cc"/>
    <text x="320" y="391" font-family="Inter, sans-serif" font-size="12" font-weight="700" fill="#997d00" text-anchor="middle">อ</text>
    <text x="352" y="380" font-family="Inter, Noto Sans Thai, sans-serif" font-size="14" font-weight="500" fill="#333436">อนุพงษ์ ศิริวัฒน์</text>
    <text x="352" y="398" font-family="Inter, sans-serif" font-size="12" fill="#7e7f82">anupong@example.com</text>
    <text x="1080" y="389" font-family="Inter, sans-serif" font-size="12" fill="#7e7f82">16 มี.ค. 2568</text>
    <rect x="1180" y="370" width="72" height="32" rx="12" fill="#ffd100"/>
    <text x="1216" y="391" font-family="Inter, Noto Sans Thai, sans-serif" font-size="12" font-weight="700" fill="#242527" text-anchor="middle">อนุมัติ</text>
    <rect x="1264" y="370" width="72" height="32" rx="12" fill="#fee2e2"/>
    <text x="1300" y="391" font-family="Inter, Noto Sans Thai, sans-serif" font-size="12" font-weight="700" fill="#b91c1c" text-anchor="middle">ปฏิเสธ</text>

    <!-- User row 3 -->
    <line x1="312" y1="416" x2="1372" y2="416" stroke="#e8e8ea"/>
    <circle cx="320" cy="450" r="20" fill="#fff9cc"/>
    <text x="320" y="455" font-family="Inter, sans-serif" font-size="12" font-weight="700" fill="#997d00" text-anchor="middle">จ</text>
    <text x="352" y="444" font-family="Inter, Noto Sans Thai, sans-serif" font-size="14" font-weight="500" fill="#333436">จิราภรณ์ มั่นคง</text>
    <text x="352" y="462" font-family="Inter, sans-serif" font-size="12" fill="#7e7f82">jiraporn@example.com</text>
    <text x="1080" y="453" font-family="Inter, sans-serif" font-size="12" fill="#7e7f82">17 มี.ค. 2568</text>
    <rect x="1180" y="434" width="72" height="32" rx="12" fill="#ffd100"/>
    <text x="1216" y="455" font-family="Inter, Noto Sans Thai, sans-serif" font-size="12" font-weight="700" fill="#242527" text-anchor="middle">อนุมัติ</text>
    <rect x="1264" y="434" width="72" height="32" rx="12" fill="#fee2e2"/>
    <text x="1300" y="455" font-family="Inter, Noto Sans Thai, sans-serif" font-size="12" font-weight="700" fill="#b91c1c" text-anchor="middle">ปฏิเสธ</text>
  </g>
</svg>
