<svg xmlns="http://www.w3.org/2000/svg" width="1440" height="900" viewBox="0 0 1440 900">
  <defs>
    <clipPath id="mainClip"><rect x="256" y="64" width="1184" height="836"/></clipPath>
  </defs>

  <!-- ============ SIDEBAR ============ -->
  <rect width="256" height="900" fill="#242527"/>
  <rect x="20" y="16" width="32" height="32" rx="8" fill="#ffd100"/>
  <text x="36" y="38" font-family="Inter, sans-serif" font-size="12" font-weight="700" fill="#242527" text-anchor="middle">S</text>
  <text x="64" y="30" font-family="Inter, sans-serif" font-size="14" font-weight="600" fill="#fff">SUNDAE</text>
  <text x="64" y="44" font-family="Inter, sans-serif" font-size="10" fill="#7e7f82">Enterprise AI</text>
  <line x1="0" y1="64" x2="256" y2="64" stroke="#fff" stroke-opacity="0.08"/>
  <rect x="12" y="76" width="232" height="40" rx="10" fill="#333436"/>
  <text x="24" y="101" font-family="Inter, Noto Sans Thai, sans-serif" font-size="12" font-weight="500" fill="#d1d1d4">NT Corporation</text>

  <!-- Nav items -->
  <text x="52" y="157" font-family="Inter, sans-serif" font-size="14" font-weight="500" fill="#a9aaad">Dashboard</text>
  <text x="52" y="197" font-family="Inter, sans-serif" font-size="14" font-weight="500" fill="#a9aaad">Knowledge Base</text>
  <!-- Bots (active) -->
  <rect x="12" y="212" width="232" height="40" rx="12" fill="rgba(255,209,0,0.2)"/>
  <text x="52" y="237" font-family="Inter, sans-serif" font-size="14" font-weight="500" fill="#ffd100">Bots</text>
  <text x="52" y="277" font-family="Inter, sans-serif" font-size="14" font-weight="500" fill="#a9aaad">Inbox</text>
  <text x="52" y="317" font-family="Inter, sans-serif" font-size="14" font-weight="500" fill="#a9aaad">Integration</text>
  <text x="52" y="357" font-family="Inter, sans-serif" font-size="14" font-weight="500" fill="#a9aaad">Organization</text>
  <text x="52" y="397" font-family="Inter, sans-serif" font-size="14" font-weight="500" fill="#a9aaad">Approvals</text>
  <text x="52" y="437" font-family="Inter, sans-serif" font-size="14" font-weight="500" fill="#a9aaad">Web Chat</text>
  <text x="52" y="477" font-family="Inter, sans-serif" font-size="14" font-weight="500" fill="#a9aaad">Profile</text>

  <!-- User Card -->
  <line x1="0" y1="850" x2="256" y2="850" stroke="#fff" stroke-opacity="0.08"/>
  <circle cx="32" cy="874" r="16" fill="#ffd100"/>
  <text x="32" y="879" font-family="Inter, sans-serif" font-size="11" font-weight="700" fill="#242527" text-anchor="middle">ณ</text>
  <text x="56" y="868" font-family="Inter, Noto Sans Thai, sans-serif" font-size="12" font-weight="500" fill="#fff">ณัฐพล วงศ์สุวรรณ</text>
  <rect x="166" y="858" width="42" height="18" rx="9" fill="#ffd100"/>
  <text x="187" y="871" font-family="Inter, sans-serif" font-size="9" font-weight="600" fill="#242527" text-anchor="middle">Admin</text>
  <text x="56" y="884" font-family="Inter, sans-serif" font-size="10" fill="#7e7f82">admin@sundae.local</text>

  <!-- ============ HEADER ============ -->
  <rect x="256" y="0" width="1184" height="64" fill="#fff" fill-opacity="0.9"/>
  <line x1="256" y1="64" x2="1440" y2="64" stroke="#e8e8ea"/>
  <text x="288" y="37" font-family="Inter, sans-serif" font-size="14" fill="#7e7f82">SUNDAE</text>
  <text x="340" y="37" font-family="Inter, sans-serif" font-size="14" fill="#d1d1d4">›</text>
  <text x="356" y="37" font-family="Inter, sans-serif" font-size="14" font-weight="600" fill="#333436">Bots</text>
  <rect x="1340" y="22" width="72" height="28" rx="14" fill="#ecfdf5"/>
  <circle cx="1356" cy="36" r="3" fill="#10b981"/>
  <text x="1366" y="41" font-family="Inter, sans-serif" font-size="12" font-weight="500" fill="#047857">Online</text>

  <!-- ============ MAIN CONTENT ============ -->
  <g clip-path="url(#mainClip)">
    <rect x="256" y="64" width="1184" height="836" fill="#f6f6f7"/>

    <!-- Page Header -->
    <text x="288" y="108" font-family="Inter, sans-serif" font-size="24" font-weight="700" fill="#242527">Bots</text>
    <!-- Create bot button -->
    <rect x="1220" y="86" width="164" height="40" rx="20" fill="#ffd100"/>
    <text x="1262" y="111" font-family="Inter, sans-serif" font-size="14" font-weight="700" fill="#242527">Create bot  +</text>

    <!-- Search bar -->
    <rect x="288" y="136" width="400" height="42" rx="12" fill="#fff" stroke="#d1d1d4" stroke-width="1"/>
    <text x="324" y="162" font-family="Inter, sans-serif" font-size="14" fill="#7e7f82">Search Models</text>

    <!-- Bot Card 1: HR Assistant -->
    <rect x="288" y="198" width="1096" height="80" rx="16" fill="#fff" stroke="#d1d1d4" stroke-width="1" stroke-dasharray="6,3"/>
    <text x="308" y="234" font-family="Inter, sans-serif" font-size="14" font-weight="700" fill="#242527">HR Assistant</text>
    <!-- Web badge -->
    <rect x="408" y="218" width="40" height="18" rx="9" fill="#ecfdf5"/>
    <text x="428" y="231" font-family="Inter, sans-serif" font-size="10" font-weight="500" fill="#059669" text-anchor="middle">Web</text>
    <text x="308" y="258" font-family="Inter, sans-serif" font-size="12" fill="#6a6b6e">คุณเป็น HR Assistant สำหรับบริษัท...</text>

    <!-- Bot Card 2: IT Support -->
    <rect x="288" y="290" width="1096" height="80" rx="16" fill="#fff" stroke="#d1d1d4" stroke-width="1" stroke-dasharray="6,3"/>
    <text x="308" y="326" font-family="Inter, sans-serif" font-size="14" font-weight="700" fill="#242527">IT Support Bot</text>
    <rect x="420" y="310" width="40" height="18" rx="9" fill="#ecfdf5"/>
    <text x="440" y="323" font-family="Inter, sans-serif" font-size="10" font-weight="500" fill="#059669" text-anchor="middle">Web</text>
    <text x="308" y="350" font-family="Inter, sans-serif" font-size="12" fill="#6a6b6e">คุณเป็น IT Support Bot สำหรับแผนก IT...</text>

    <!-- Bot Card 3: Finance Bot -->
    <rect x="288" y="382" width="1096" height="80" rx="16" fill="#fff" stroke="#d1d1d4" stroke-width="1" stroke-dasharray="6,3"/>
    <text x="308" y="418" font-family="Inter, sans-serif" font-size="14" font-weight="700" fill="#242527">Finance Bot</text>
    <rect x="400" y="402" width="40" height="18" rx="9" fill="#ecfdf5"/>
    <text x="420" y="415" font-family="Inter, sans-serif" font-size="10" font-weight="500" fill="#059669" text-anchor="middle">Web</text>
    <text x="308" y="442" font-family="Inter, sans-serif" font-size="12" fill="#6a6b6e">คุณเป็น Finance Bot สำหรับฝ่ายการเงิน...</text>
  </g>
</svg>
