<svg xmlns="http://www.w3.org/2000/svg" width="1440" height="900" viewBox="0 0 1440 900">
  <defs>
    <clipPath id="mainClip"><rect x="256" y="64" width="1184" height="836"/></clipPath>
  </defs>

  <!-- ============ SIDEBAR (w-64 = 256px) ============ -->
  <rect width="256" height="900" fill="#242527"/>

  <!-- Sidebar: Brand -->
  <rect y="0" width="256" height="64" fill="#242527"/>
  <line x1="0" y1="64" x2="256" y2="64" stroke="#fff" stroke-opacity="0.08"/>
  <rect x="20" y="16" width="32" height="32" rx="8" fill="#ffd100"/>
  <text x="36" y="38" font-family="Inter, sans-serif" font-size="12" font-weight="700" fill="#242527" text-anchor="middle">S</text>
  <text x="64" y="30" font-family="Inter, sans-serif" font-size="14" font-weight="600" fill="#fff" letter-spacing="0.5">SUNDAE</text>
  <text x="64" y="44" font-family="Inter, sans-serif" font-size="10" fill="#7e7f82">Enterprise AI</text>

  <!-- Sidebar: Org Switcher -->
  <rect x="12" y="76" width="232" height="40" rx="10" fill="#333436"/>
  <text x="24" y="101" font-family="Inter, Noto Sans Thai, sans-serif" font-size="12" font-weight="500" fill="#d1d1d4">NT Corporation</text>

  <!-- Sidebar: Nav Items (Admin sees ALL) -->
  <!-- Dashboard (active) -->
  <rect x="12" y="132" width="232" height="40" rx="12" fill="rgba(255,209,0,0.2)"/>
  <path d="M36,146 L36,146" fill="none"/>
  <svg x="24" y="142" width="20" height="20" viewBox="0 0 20 20" fill="#ffd100">
    <path d="M10.707 2.293a1 1 0 0 0-1.414 0l-7 7a1 1 0 0 0 1.414 1.414L4 10.414V17a1 1 0 0 0 1 1h2a1 1 0 0 0 1-1v-2a1 1 0 0 1 1-1h2a1 1 0 0 1 1 1v2a1 1 0 0 0 1 1h2a1 1 0 0 0 1-1v-6.586l.293.293a1 1 0 0 0 1.414-1.414l-7-7Z"/>
  </svg>
  <text x="52" y="157" font-family="Inter, sans-serif" font-size="14" font-weight="500" fill="#ffd100">Dashboard</text>

  <!-- Knowledge Base -->
  <svg x="24" y="186" width="20" height="20" viewBox="0 0 20 20" fill="#a9aaad">
    <path d="M10.75 16.82A7.462 7.462 0 0 1 15 15.5c.71 0 1.396.098 2.046.282A.75.75 0 0 0 18 15.06v-11a.75.75 0 0 0-.546-.721A9.006 9.006 0 0 0 15 3a8.963 8.963 0 0 0-4.25 1.065V16.82ZM9.25 4.065A8.963 8.963 0 0 0 5 3c-.85 0-1.673.118-2.454.339A.75.75 0 0 0 2 4.06v11a.75.75 0 0 0 .954.721A7.462 7.462 0 0 1 5 15.5c1.579 0 3.042.487 4.25 1.32V4.065Z"/>
  </svg>
  <text x="52" y="201" font-family="Inter, sans-serif" font-size="14" font-weight="500" fill="#a9aaad">Knowledge Base</text>

  <!-- Bots -->
  <svg x="24" y="226" width="20" height="20" viewBox="0 0 20 20" fill="#a9aaad">
    <path d="M4.632 3.533A2 2 0 0 1 6.577 2h6.846a2 2 0 0 1 1.945 1.533l1.976 8.234A3.489 3.489 0 0 0 16 11.5H4c-.476 0-.93.095-1.344.267l1.976-8.234Z"/>
    <path fill-rule="evenodd" d="M4 13a2 2 0 1 0 0 4h12a2 2 0 1 0 0-4H4Z" clip-rule="evenodd"/>
  </svg>
  <text x="52" y="241" font-family="Inter, sans-serif" font-size="14" font-weight="500" fill="#a9aaad">Bots</text>

  <!-- Inbox -->
  <svg x="24" y="266" width="20" height="20" viewBox="0 0 20 20" fill="#a9aaad">
    <path fill-rule="evenodd" d="M3.43 2.524A41.29 41.29 0 0 1 10 2c2.236 0 4.43.18 6.57.524 1.437.231 2.43 1.49 2.43 2.902v5.148c0 1.413-.993 2.67-2.43 2.902a41.202 41.202 0 0 1-5.183.501.78.78 0 0 0-.528.224l-3.579 3.58A.75.75 0 0 1 6 17.25v-3.443a41.033 41.033 0 0 1-2.57-.33C2.993 13.244 2 11.986 2 10.573V5.426c0-1.413.993-2.67 2.43-2.902Z" clip-rule="evenodd"/>
  </svg>
  <text x="52" y="281" font-family="Inter, sans-serif" font-size="14" font-weight="500" fill="#a9aaad">Inbox</text>

  <!-- Integration -->
  <svg x="24" y="306" width="20" height="20" viewBox="0 0 20 20" fill="#a9aaad">
    <path fill-rule="evenodd" d="M4.606 12.97a.75.75 0 0 1-.134 1.051 2.494 2.494 0 0 0-.93 2.437 2.494 2.494 0 0 0 2.437-.93.75.75 0 1 1 1.186.918 3.995 3.995 0 0 1-4.482 1.332.75.75 0 0 1-.461-.461 3.994 3.994 0 0 1 1.332-4.482.75.75 0 0 1 1.052.134Z" clip-rule="evenodd"/>
  </svg>
  <text x="52" y="321" font-family="Inter, sans-serif" font-size="14" font-weight="500" fill="#a9aaad">Integration</text>

  <!-- Organization -->
  <svg x="24" y="346" width="20" height="20" viewBox="0 0 20 20" fill="#a9aaad">
    <path d="M11 5a3 3 0 1 1-6 0 3 3 0 0 1 6 0ZM2.046 15.253c-.058.468.172.92.57 1.175A9.953 9.953 0 0 0 8 18c1.982 0 3.83-.578 5.384-1.573.398-.254.628-.707.57-1.175a6.001 6.001 0 0 0-11.908 0ZM15.75 8.5a.75.75 0 0 0-1.5 0v2h-2a.75.75 0 0 0 0 1.5h2v2a.75.75 0 0 0 1.5 0v-2h2a.75.75 0 0 0 0-1.5h-2v-2Z"/>
  </svg>
  <text x="52" y="361" font-family="Inter, sans-serif" font-size="14" font-weight="500" fill="#a9aaad">Organization</text>

  <!-- Approvals -->
  <svg x="24" y="386" width="20" height="20" viewBox="0 0 20 20" fill="#a9aaad">
    <path d="M10 8a3 3 0 1 0 0-6 3 3 0 0 0 0 6ZM3.465 14.493a1.23 1.23 0 0 0 .41 1.412A9.957 9.957 0 0 0 10 18c2.31 0 4.438-.784 6.131-2.1.43-.333.604-.903.408-1.41a7.002 7.002 0 0 0-13.074.003Z"/>
  </svg>
  <text x="52" y="401" font-family="Inter, sans-serif" font-size="14" font-weight="500" fill="#a9aaad">Approvals</text>

  <!-- Web Chat -->
  <svg x="24" y="426" width="20" height="20" viewBox="0 0 20 20" fill="#a9aaad">
    <path fill-rule="evenodd" d="M18 10a8 8 0 1 1-16 0 8 8 0 0 1 16 0ZM8.94 6.94a.75.75 0 1 1-1.061-1.061 3 3 0 1 1 2.871 5.026v.345a.75.75 0 0 1-1.5 0v-.916c0-.414.336-.75.75-.75a1.5 1.5 0 0 0 .94-2.644Zm-.25 5.81a.75.75 0 1 0 0 1.5.75.75 0 0 0 0-1.5Z" clip-rule="evenodd"/>
  </svg>
  <text x="52" y="441" font-family="Inter, sans-serif" font-size="14" font-weight="500" fill="#a9aaad">Web Chat</text>

  <!-- Profile -->
  <svg x="24" y="466" width="20" height="20" viewBox="0 0 20 20" fill="#a9aaad">
    <path fill-rule="evenodd" d="M18 10a8 8 0 1 1-16 0 8 8 0 0 1 16 0Zm-5.5-2.5a2.5 2.5 0 1 1-5 0 2.5 2.5 0 0 1 5 0ZM10 12a5.99 5.99 0 0 0-4.793 2.39A6.483 6.483 0 0 0 10 16.5a6.483 6.483 0 0 0 4.793-2.11A5.99 5.99 0 0 0 10 12Z" clip-rule="evenodd"/>
  </svg>
  <text x="52" y="481" font-family="Inter, sans-serif" font-size="14" font-weight="500" fill="#a9aaad">Profile</text>

  <!-- Sidebar: Collapse Button -->
  <rect x="12" y="810" width="232" height="32" rx="12" fill="transparent"/>
  <text x="52" y="831" font-family="Inter, sans-serif" font-size="12" fill="#7e7f82">Collapse</text>

  <!-- Sidebar: User Card -->
  <line x1="0" y1="850" x2="256" y2="850" stroke="#fff" stroke-opacity="0.08"/>
  <circle cx="32" cy="874" r="16" fill="#ffd100"/>
  <text x="32" y="879" font-family="Inter, sans-serif" font-size="11" font-weight="700" fill="#242527" text-anchor="middle">ณ</text>
  <text x="56" y="868" font-family="Inter, Noto Sans Thai, sans-serif" font-size="12" font-weight="500" fill="#fff">ณัฐพล วงศ์สุวรรณ</text>
  <!-- Admin badge -->
  <rect x="166" y="858" width="42" height="18" rx="9" fill="#ffd100"/>
  <text x="187" y="871" font-family="Inter, sans-serif" font-size="9" font-weight="600" fill="#242527" text-anchor="middle">Admin</text>
  <text x="56" y="884" font-family="Inter, sans-serif" font-size="10" fill="#7e7f82">admin@sundae.local</text>

  <!-- ============ HEADER (h-16 = 64px) ============ -->
  <rect x="256" y="0" width="1184" height="64" fill="#fff" fill-opacity="0.9"/>
  <line x1="256" y1="64" x2="1440" y2="64" stroke="#e8e8ea"/>
  <!-- Breadcrumb -->
  <text x="288" y="37" font-family="Inter, sans-serif" font-size="14" fill="#7e7f82">SUNDAE</text>
  <text x="340" y="37" font-family="Inter, sans-serif" font-size="14" fill="#d1d1d4">›</text>
  <text x="356" y="37" font-family="Inter, sans-serif" font-size="14" font-weight="600" fill="#333436">Dashboard</text>
  <!-- Online badge -->
  <rect x="1340" y="22" width="72" height="28" rx="14" fill="#ecfdf5"/>
  <circle cx="1356" cy="36" r="3" fill="#10b981"/>
  <text x="1366" y="41" font-family="Inter, sans-serif" font-size="12" font-weight="500" fill="#047857">Online</text>

  <!-- ============ MAIN CONTENT ============ -->
  <g clip-path="url(#mainClip)">
    <!-- Background -->
    <rect x="256" y="64" width="1184" height="836" fill="#f6f6f7"/>

    <!-- Page Title -->
    <text x="288" y="108" font-family="Inter, Noto Sans Thai, sans-serif" font-size="24" font-weight="700" fill="#242527">NT Corporation</text>
    <text x="288" y="130" font-family="Inter, Noto Sans Thai, sans-serif" font-size="14" fill="#6a6b6e">ภาพรวมระบบ SUNDAE — ข้อมูลอัปเดตล่าสุด</text>

    <!-- ======== Metric Cards (4 cards) ======== -->
    <!-- Card 1: เอกสารทั้งหมด -->
    <rect x="288" y="152" width="265" height="130" rx="16" fill="#fff" stroke="#e8e8ea" stroke-width="1"/>
    <rect x="304" y="168" width="44" height="44" rx="12" fill="#fff9cc"/>
    <svg x="314" y="178" width="24" height="24" viewBox="0 0 20 20" fill="#c29e00">
      <path d="M3 3.5A1.5 1.5 0 0 1 4.5 2h6.879a1.5 1.5 0 0 1 1.06.44l4.122 4.12A1.5 1.5 0 0 1 17 7.622V16.5a1.5 1.5 0 0 1-1.5 1.5h-11A1.5 1.5 0 0 1 3 16.5v-13Z"/>
    </svg>
    <rect x="490" y="170" width="48" height="22" rx="11" fill="#e8e8ea"/>
    <text x="514" y="185" font-family="Inter, sans-serif" font-size="11" font-weight="600" fill="#6a6b6e" text-anchor="middle">live</text>
    <text x="304" y="248" font-family="Inter, sans-serif" font-size="30" font-weight="700" fill="#242527">6</text>
    <text x="304" y="268" font-family="Inter, Noto Sans Thai, sans-serif" font-size="14" fill="#6a6b6e">เอกสารทั้งหมด</text>

    <!-- Card 2: Bot ที่ใช้งาน -->
    <rect x="565" y="152" width="265" height="130" rx="16" fill="#fff" stroke="#e8e8ea" stroke-width="1"/>
    <rect x="581" y="168" width="44" height="44" rx="12" fill="#e8e8ea"/>
    <svg x="591" y="178" width="24" height="24" viewBox="0 0 20 20" fill="#545659">
      <path d="M4.632 3.533A2 2 0 0 1 6.577 2h6.846a2 2 0 0 1 1.945 1.533l1.976 8.234A3.489 3.489 0 0 0 16 11.5H4c-.476 0-.93.095-1.344.267l1.976-8.234Z"/>
      <path fill-rule="evenodd" d="M4 13a2 2 0 1 0 0 4h12a2 2 0 1 0 0-4H4Z" clip-rule="evenodd"/>
    </svg>
    <rect x="767" y="170" width="48" height="22" rx="11" fill="#e8e8ea"/>
    <text x="791" y="185" font-family="Inter, sans-serif" font-size="11" font-weight="600" fill="#6a6b6e" text-anchor="middle">live</text>
    <text x="581" y="248" font-family="Inter, sans-serif" font-size="30" font-weight="700" fill="#242527">3</text>
    <text x="581" y="268" font-family="Inter, Noto Sans Thai, sans-serif" font-size="14" fill="#6a6b6e">Bot ที่ใช้งาน</text>

    <!-- Card 3: แชทวันนี้ -->
    <rect x="842" y="152" width="265" height="130" rx="16" fill="#fff" stroke="#e8e8ea" stroke-width="1"/>
    <rect x="858" y="168" width="44" height="44" rx="12" fill="#f5f3ff"/>
    <svg x="868" y="178" width="24" height="24" viewBox="0 0 20 20" fill="#7c3aed">
      <path fill-rule="evenodd" d="M3.43 2.524A41.29 41.29 0 0 1 10 2c2.236 0 4.43.18 6.57.524 1.437.231 2.43 1.49 2.43 2.902v5.148c0 1.413-.993 2.67-2.43 2.902a41.202 41.202 0 0 1-5.183.501.78.78 0 0 0-.528.224l-3.579 3.58A.75.75 0 0 1 6 17.25v-3.443a41.033 41.033 0 0 1-2.57-.33C2.993 13.244 2 11.986 2 10.573V5.426c0-1.413.993-2.67 2.43-2.902Z" clip-rule="evenodd"/>
    </svg>
    <rect x="1044" y="170" width="48" height="22" rx="11" fill="#e8e8ea"/>
    <text x="1068" y="185" font-family="Inter, sans-serif" font-size="11" font-weight="600" fill="#6a6b6e" text-anchor="middle">live</text>
    <text x="858" y="248" font-family="Inter, sans-serif" font-size="30" font-weight="700" fill="#242527">2</text>
    <text x="858" y="268" font-family="Inter, Noto Sans Thai, sans-serif" font-size="14" fill="#6a6b6e">แชทวันนี้</text>

    <!-- Card 4: แชทที่รอดูแล -->
    <rect x="1119" y="152" width="265" height="130" rx="16" fill="#fff" stroke="#e8e8ea" stroke-width="1"/>
    <rect x="1135" y="168" width="44" height="44" rx="12" fill="#fff7ed"/>
    <svg x="1145" y="178" width="24" height="24" viewBox="0 0 20 20" fill="#ea580c">
      <path fill-rule="evenodd" d="M10 18a8 8 0 1 0 0-16 8 8 0 0 0 0 16Zm.75-13a.75.75 0 0 0-1.5 0v5c0 .414.336.75.75.75h4a.75.75 0 0 0 0-1.5h-3.25V5Z" clip-rule="evenodd"/>
    </svg>
    <rect x="1321" y="170" width="48" height="22" rx="11" fill="#e8e8ea"/>
    <text x="1345" y="185" font-family="Inter, sans-serif" font-size="11" font-weight="600" fill="#6a6b6e" text-anchor="middle">live</text>
    <text x="1135" y="248" font-family="Inter, sans-serif" font-size="30" font-weight="700" fill="#242527">1</text>
    <text x="1135" y="268" font-family="Inter, Noto Sans Thai, sans-serif" font-size="14" fill="#6a6b6e">แชทที่รอดูแล</text>

    <!-- ======== Quick Actions (3 cards) ======== -->
    <!-- Knowledge -->
    <rect x="288" y="304" width="365" height="100" rx="16" fill="#fff" stroke="#e8e8ea" stroke-width="1"/>
    <text x="308" y="340" font-family="Inter, sans-serif" font-size="24">📄</text>
    <text x="308" y="372" font-family="Inter, Noto Sans Thai, sans-serif" font-size="14" font-weight="600" fill="#242527">จัดการ Knowledge</text>
    <text x="308" y="390" font-family="Inter, Noto Sans Thai, sans-serif" font-size="12" fill="#6a6b6e">อัปโหลดและจัดการเอกสาร PDF</text>

    <!-- Bots -->
    <rect x="665" y="304" width="365" height="100" rx="16" fill="#fff" stroke="#e8e8ea" stroke-width="1"/>
    <text x="685" y="340" font-family="Inter, sans-serif" font-size="24">🤖</text>
    <text x="685" y="372" font-family="Inter, Noto Sans Thai, sans-serif" font-size="14" font-weight="600" fill="#242527">จัดการ Bot</text>
    <text x="685" y="390" font-family="Inter, Noto Sans Thai, sans-serif" font-size="12" fill="#6a6b6e">สร้างและแก้ไข AI Bot</text>

    <!-- Inbox -->
    <rect x="1042" y="304" width="342" height="100" rx="16" fill="#fff" stroke="#e8e8ea" stroke-width="1"/>
    <text x="1062" y="340" font-family="Inter, sans-serif" font-size="24">💬</text>
    <text x="1062" y="372" font-family="Inter, Noto Sans Thai, sans-serif" font-size="14" font-weight="600" fill="#242527">ดู Inbox</text>
    <text x="1062" y="390" font-family="Inter, Noto Sans Thai, sans-serif" font-size="12" fill="#6a6b6e">ดูประวัติการสนทนาทั้งหมด</text>

    <!-- ======== System Status ======== -->
    <rect x="288" y="424" width="1096" height="100" rx="16" fill="#fff" stroke="#e8e8ea" stroke-width="1"/>
    <text x="312" y="456" font-family="Inter, Noto Sans Thai, sans-serif" font-size="16" font-weight="600" fill="#333436">สถานะระบบ</text>
    <!-- Status dots -->
    <circle cx="320" cy="484" r="4" fill="#10b981"/>
    <text x="332" y="489" font-family="Inter, sans-serif" font-size="14" fill="#545659">RAG Pipeline</text>
    <circle cx="470" cy="484" r="4" fill="#ef4444"/>
    <text x="482" y="489" font-family="Inter, sans-serif" font-size="14" fill="#545659">Ollama</text>
    <circle cx="570" cy="484" r="4" fill="#10b981"/>
    <text x="582" y="489" font-family="Inter, sans-serif" font-size="14" fill="#545659">Embedding</text>
    <circle cx="690" cy="484" r="4" fill="#ef4444"/>
    <text x="702" y="489" font-family="Inter, sans-serif" font-size="14" fill="#545659">Supabase DB</text>
    <circle cx="830" cy="484" r="4" fill="#a9aaad" opacity="0.6"/>
    <text x="842" y="489" font-family="Inter, sans-serif" font-size="14" fill="#545659">LINE Webhook</text>

    <!-- ======== Member Management ======== -->
    <rect x="288" y="544" width="1096" height="280" rx="16" fill="#fff" stroke="#e8e8ea" stroke-width="1"/>
    <text x="312" y="576" font-family="Inter, Noto Sans Thai, sans-serif" font-size="16" font-weight="600" fill="#333436">สมาชิกในองค์กร (4)</text>

    <!-- Member row 1 -->
    <circle cx="320" cy="612" r="16" fill="#fff9cc"/>
    <text x="320" y="617" font-family="Inter, sans-serif" font-size="11" font-weight="700" fill="#997d00" text-anchor="middle">ณ</text>
    <text x="346" y="607" font-family="Inter, Noto Sans Thai, sans-serif" font-size="14" font-weight="500" fill="#333436">ณัฐพล วงศ์สุวรรณ</text>
    <text x="346" y="622" font-family="Inter, sans-serif" font-size="12" fill="#7e7f82">admin@sundae.local</text>
    <rect x="1220" y="600" width="52" height="20" rx="10" fill="#fff9cc"/>
    <text x="1246" y="614" font-family="Inter, sans-serif" font-size="10" font-weight="600" fill="#997d00" text-anchor="middle">owner</text>

    <!-- Member row 2 -->
    <line x1="312" y1="636" x2="1372" y2="636" stroke="#e8e8ea"/>
    <circle cx="320" cy="660" r="16" fill="#fff9cc"/>
    <text x="320" y="665" font-family="Inter, sans-serif" font-size="11" font-weight="700" fill="#997d00" text-anchor="middle">ธ</text>
    <text x="346" y="655" font-family="Inter, Noto Sans Thai, sans-serif" font-size="14" font-weight="500" fill="#333436">ธนกร เจริญธรรม</text>
    <text x="346" y="670" font-family="Inter, sans-serif" font-size="12" fill="#7e7f82">owner@sundae.local</text>
    <rect x="1220" y="648" width="52" height="20" rx="10" fill="#e8e8ea"/>
    <text x="1246" y="662" font-family="Inter, sans-serif" font-size="10" font-weight="600" fill="#6a6b6e" text-anchor="middle">member</text>
    <text x="1302" y="662" font-family="Inter, Noto Sans Thai, sans-serif" font-size="12" fill="#ef4444">ลบ</text>

    <!-- Member row 3 -->
    <line x1="312" y1="684" x2="1372" y2="684" stroke="#e8e8ea"/>
    <circle cx="320" cy="708" r="16" fill="#fff9cc"/>
    <text x="320" y="713" font-family="Inter, sans-serif" font-size="11" font-weight="700" fill="#997d00" text-anchor="middle">ส</text>
    <text x="346" y="703" font-family="Inter, Noto Sans Thai, sans-serif" font-size="14" font-weight="500" fill="#333436">สมชาย ใจดี</text>
    <text x="346" y="718" font-family="Inter, sans-serif" font-size="12" fill="#7e7f82">user@sundae.local</text>
    <rect x="1220" y="696" width="52" height="20" rx="10" fill="#e8e8ea"/>
    <text x="1246" y="710" font-family="Inter, sans-serif" font-size="10" font-weight="600" fill="#6a6b6e" text-anchor="middle">member</text>
    <text x="1302" y="710" font-family="Inter, Noto Sans Thai, sans-serif" font-size="12" fill="#ef4444">ลบ</text>

    <!-- Invite Form -->
    <line x1="312" y1="740" x2="1372" y2="740" stroke="#e8e8ea"/>
    <text x="312" y="772" font-family="Inter, Noto Sans Thai, sans-serif" font-size="12" font-weight="500" fill="#545659">เชิญสมาชิก</text>
    <rect x="312" y="782" width="880" height="40" rx="12" fill="#f6f6f7" stroke="#d1d1d4" stroke-width="1"/>
    <text x="328" y="807" font-family="Inter, sans-serif" font-size="14" fill="#a9aaad">email@example.com</text>
    <rect x="1204" y="782" width="100" height="40" rx="12" fill="#ffd100"/>
    <text x="1254" y="808" font-family="Inter, Noto Sans Thai, sans-serif" font-size="12" font-weight="700" fill="#242527" text-anchor="middle">ส่งคำเชิญ</text>
  </g>
</svg>
