<svg xmlns="http://www.w3.org/2000/svg" width="1440" height="900" viewBox="0 0 1440 900">
  <defs>
    <clipPath id="mainClip"><rect x="256" y="64" width="1184" height="836"/></clipPath>
  </defs>

  <!-- ============ SIDEBAR ============ -->
  <rect width="256" height="900" fill="#242527"/>
  <rect x="20" y="16" width="32" height="32" rx="8" fill="#ffd100"/>
  <text x="36" y="38" font-family="Inter, sans-serif" font-size="12" font-weight="700" fill="#242527" text-anchor="middle">S</text>
  <text x="64" y="30" font-family="Inter, sans-serif" font-size="14" font-weight="600" fill="#fff">SUNDAE</text>
  <text x="64" y="44" font-family="Inter, sans-serif" font-size="10" fill="#7e7f82">Enterprise AI</text>
  <line x1="0" y1="64" x2="256" y2="64" stroke="#fff" stroke-opacity="0.08"/>
  <rect x="12" y="76" width="232" height="40" rx="10" fill="#333436"/>
  <text x="24" y="101" font-family="Inter, Noto Sans Thai, sans-serif" font-size="12" font-weight="500" fill="#d1d1d4">NT Corporation</text>

  <text x="52" y="157" font-family="Inter, sans-serif" font-size="14" font-weight="500" fill="#a9aaad">Dashboard</text>
  <text x="52" y="197" font-family="Inter, sans-serif" font-size="14" font-weight="500" fill="#a9aaad">Knowledge Base</text>
  <text x="52" y="237" font-family="Inter, sans-serif" font-size="14" font-weight="500" fill="#a9aaad">Bots</text>
  <!-- Inbox (active) -->
  <rect x="12" y="252" width="232" height="40" rx="12" fill="rgba(255,209,0,0.2)"/>
  <text x="52" y="277" font-family="Inter, sans-serif" font-size="14" font-weight="500" fill="#ffd100">Inbox</text>
  <text x="52" y="317" font-family="Inter, sans-serif" font-size="14" font-weight="500" fill="#a9aaad">Integration</text>
  <text x="52" y="357" font-family="Inter, sans-serif" font-size="14" font-weight="500" fill="#a9aaad">Organization</text>
  <text x="52" y="397" font-family="Inter, sans-serif" font-size="14" font-weight="500" fill="#a9aaad">Approvals</text>
  <text x="52" y="437" font-family="Inter, sans-serif" font-size="14" font-weight="500" fill="#a9aaad">Web Chat</text>
  <text x="52" y="477" font-family="Inter, sans-serif" font-size="14" font-weight="500" fill="#a9aaad">Profile</text>

  <line x1="0" y1="850" x2="256" y2="850" stroke="#fff" stroke-opacity="0.08"/>
  <circle cx="32" cy="874" r="16" fill="#ffd100"/>
  <text x="32" y="879" font-family="Inter, sans-serif" font-size="11" font-weight="700" fill="#242527" text-anchor="middle">ณ</text>
  <text x="56" y="868" font-family="Inter, Noto Sans Thai, sans-serif" font-size="12" font-weight="500" fill="#fff">ณัฐพล วงศ์สุวรรณ</text>
  <rect x="166" y="858" width="42" height="18" rx="9" fill="#ffd100"/>
  <text x="187" y="871" font-family="Inter, sans-serif" font-size="9" font-weight="600" fill="#242527" text-anchor="middle">Admin</text>
  <text x="56" y="884" font-family="Inter, sans-serif" font-size="10" fill="#7e7f82">admin@sundae.local</text>

  <!-- ============ HEADER ============ -->
  <rect x="256" y="0" width="1184" height="64" fill="#fff" fill-opacity="0.9"/>
  <line x1="256" y1="64" x2="1440" y2="64" stroke="#e8e8ea"/>
  <text x="288" y="37" font-family="Inter, sans-serif" font-size="14" fill="#7e7f82">SUNDAE</text>
  <text x="340" y="37" font-family="Inter, sans-serif" font-size="14" fill="#d1d1d4">›</text>
  <text x="356" y="37" font-family="Inter, sans-serif" font-size="14" font-weight="600" fill="#333436">Inbox</text>
  <rect x="1340" y="22" width="72" height="28" rx="14" fill="#ecfdf5"/>
  <circle cx="1356" cy="36" r="3" fill="#10b981"/>
  <text x="1366" y="41" font-family="Inter, sans-serif" font-size="12" font-weight="500" fill="#047857">Online</text>

  <!-- ============ MAIN CONTENT ============ -->
  <g clip-path="url(#mainClip)">
    <rect x="256" y="64" width="1184" height="836" fill="#f6f6f7"/>

    <!-- Split Layout: Session List (left 380px) + Chat Detail (right) -->

    <!-- ====== LEFT: Session List Panel ====== -->
    <rect x="256" y="64" width="380" height="836" fill="#fff"/>
    <line x1="636" y1="64" x2="636" y2="900" stroke="#e8e8ea"/>

    <!-- Search bar -->
    <rect x="272" y="80" width="348" height="38" rx="10" fill="#f6f6f7" stroke="#d1d1d4" stroke-width="1"/>
    <text x="296" y="104" font-family="Inter, sans-serif" font-size="13" fill="#7e7f82">ค้นหาเซสชัน...</text>

    <!-- Tab filters -->
    <rect x="272" y="130" width="60" height="28" rx="14" fill="#242527"/>
    <text x="302" y="149" font-family="Inter, Noto Sans Thai, sans-serif" font-size="11" font-weight="600" fill="#fff" text-anchor="middle">ทั้งหมด</text>
    <rect x="340" y="130" width="72" height="28" rx="14" fill="#f6f6f7"/>
    <text x="376" y="149" font-family="Inter, Noto Sans Thai, sans-serif" font-size="11" font-weight="600" fill="#6a6b6e" text-anchor="middle">รับเรื่อง</text>
    <rect x="420" y="130" width="54" height="28" rx="14" fill="#f6f6f7"/>
    <text x="447" y="149" font-family="Inter, Noto Sans Thai, sans-serif" font-size="11" font-weight="600" fill="#6a6b6e" text-anchor="middle">Active</text>

    <!-- Session row 1 (selected - human_takeover) -->
    <rect x="268" y="170" width="356" height="72" rx="12" fill="#fffdf0"/>
    <circle cx="288" cy="200" r="16" fill="#fff9cc"/>
    <text x="288" y="205" font-family="Inter, sans-serif" font-size="11" font-weight="700" fill="#997d00" text-anchor="middle">U</text>
    <text x="314" y="194" font-family="Inter, sans-serif" font-size="13" font-weight="600" fill="#242527">User-abc123</text>
    <rect x="404" y="182" width="60" height="18" rx="9" fill="#fffbeb"/>
    <text x="434" y="195" font-family="Inter, Noto Sans Thai, sans-serif" font-size="10" font-weight="500" fill="#d97706" text-anchor="middle">รับเรื่อง</text>
    <text x="314" y="212" font-family="Inter, sans-serif" font-size="12" fill="#6a6b6e">HR Assistant</text>
    <text x="314" y="228" font-family="Inter, sans-serif" font-size="11" fill="#7e7f82">ต้องการสอบถามเรื่องสิทธิลา...</text>

    <!-- Session row 2 (active) -->
    <rect x="268" y="250" width="356" height="72" rx="12" fill="transparent"/>
    <circle cx="288" cy="280" r="16" fill="#fff9cc"/>
    <text x="288" y="285" font-family="Inter, sans-serif" font-size="11" font-weight="700" fill="#997d00" text-anchor="middle">L</text>
    <text x="314" y="274" font-family="Inter, sans-serif" font-size="13" font-weight="600" fill="#242527">LINE-def456</text>
    <rect x="404" y="262" width="50" height="18" rx="9" fill="#ecfdf5"/>
    <text x="429" y="275" font-family="Inter, sans-serif" font-size="10" font-weight="500" fill="#059669" text-anchor="middle">Active</text>
    <text x="314" y="292" font-family="Inter, sans-serif" font-size="12" fill="#6a6b6e">IT Support Bot</text>
    <text x="314" y="308" font-family="Inter, sans-serif" font-size="11" fill="#7e7f82">WiFi ไม่ทำงาน...</text>

    <!-- Session row 3 (helped) -->
    <rect x="268" y="330" width="356" height="72" rx="12" fill="transparent"/>
    <circle cx="288" cy="360" r="16" fill="#fff9cc"/>
    <text x="288" y="365" font-family="Inter, sans-serif" font-size="11" font-weight="700" fill="#997d00" text-anchor="middle">W</text>
    <text x="314" y="354" font-family="Inter, sans-serif" font-size="13" font-weight="600" fill="#242527">Web-ghi789</text>
    <rect x="404" y="342" width="96" height="18" rx="9" fill="#eff6ff"/>
    <text x="452" y="355" font-family="Inter, Noto Sans Thai, sans-serif" font-size="10" font-weight="500" fill="#2563eb" text-anchor="middle">ช่วยเหลือเรียบร้อย</text>
    <text x="314" y="372" font-family="Inter, sans-serif" font-size="12" fill="#6a6b6e">HR Assistant</text>
    <text x="314" y="388" font-family="Inter, sans-serif" font-size="11" fill="#7e7f82">ขอบคุณครับ...</text>

    <!-- Session row 4 (resolved) -->
    <rect x="268" y="410" width="356" height="72" rx="12" fill="transparent"/>
    <circle cx="288" cy="440" r="16" fill="#fff9cc"/>
    <text x="288" y="445" font-family="Inter, sans-serif" font-size="11" font-weight="700" fill="#997d00" text-anchor="middle">M</text>
    <text x="314" y="434" font-family="Inter, sans-serif" font-size="13" font-weight="600" fill="#242527">Mobile-jkl012</text>
    <rect x="414" y="422" width="56" height="18" rx="9" fill="#e8e8ea"/>
    <text x="442" y="435" font-family="Inter, Noto Sans Thai, sans-serif" font-size="10" font-weight="500" fill="#6a6b6e" text-anchor="middle">ปิดแล้ว</text>
    <text x="314" y="452" font-family="Inter, sans-serif" font-size="12" fill="#6a6b6e">Finance Bot</text>
    <text x="314" y="468" font-family="Inter, sans-serif" font-size="11" fill="#7e7f82">ยอดค้างชำระ...</text>

    <!-- ====== RIGHT: Chat Detail ====== -->
    <!-- Chat Header -->
    <rect x="636" y="64" width="804" height="56" fill="#fff"/>
    <line x1="636" y1="120" x2="1440" y2="120" stroke="#e8e8ea"/>
    <text x="660" y="92" font-family="Inter, sans-serif" font-size="14" font-weight="600" fill="#242527">User-abc123</text>
    <text x="660" y="108" font-family="Inter, sans-serif" font-size="12" fill="#7e7f82">HR Assistant · human_takeover</text>

    <!-- Status change buttons -->
    <rect x="1100" y="78" width="100" height="30" rx="15" fill="#ffd100"/>
    <text x="1150" y="98" font-family="Inter, Noto Sans Thai, sans-serif" font-size="12" font-weight="700" fill="#242527" text-anchor="middle">ช่วยเหลือ</text>
    <rect x="1210" y="78" width="80" height="30" rx="15" fill="#e8e8ea"/>
    <text x="1250" y="98" font-family="Inter, Noto Sans Thai, sans-serif" font-size="12" font-weight="600" fill="#545659" text-anchor="middle">ปิดเคส</text>

    <!-- Chat messages -->
    <rect x="636" y="120" width="804" height="660" fill="#f6f6f7"/>

    <!-- User message -->
    <rect x="960" y="150" width="440" height="50" rx="16" fill="#ffd100"/>
    <text x="976" y="175" font-family="Inter, Noto Sans Thai, sans-serif" font-size="14" fill="#242527">สอบถามเรื่องสิทธิลาพักร้อนประจำปีครับ</text>
    <text x="976" y="192" font-family="Inter, sans-serif" font-size="10" fill="#997d00">10:30</text>

    <!-- Bot message -->
    <rect x="660" y="220" width="480" height="80" rx="16" fill="#fff"/>
    <text x="676" y="244" font-family="Inter, Noto Sans Thai, sans-serif" font-size="14" fill="#333436">สิทธิลาพักร้อนประจำปี:</text>
    <text x="676" y="264" font-family="Inter, Noto Sans Thai, sans-serif" font-size="14" fill="#333436">- พนักงานทำงานครบ 1 ปี ได้สิทธิลา 6 วัน</text>
    <text x="676" y="284" font-family="Inter, Noto Sans Thai, sans-serif" font-size="14" fill="#333436">- ครบ 3 ปี ได้ 10 วัน</text>
    <text x="1124" y="294" font-family="Inter, sans-serif" font-size="10" fill="#7e7f82">10:30</text>

    <!-- Admin reply input -->
    <rect x="636" y="780" width="804" height="120" fill="#fff"/>
    <line x1="636" y1="780" x2="1440" y2="780" stroke="#e8e8ea"/>
    <rect x="660" y="800" width="680" height="72" rx="16" fill="#f6f6f7" stroke="#d1d1d4" stroke-width="1"/>
    <text x="680" y="840" font-family="Inter, Noto Sans Thai, sans-serif" font-size="14" fill="#a9aaad">พิมพ์ข้อความตอบกลับ (ในนามแอดมิน)...</text>
    <rect x="1354" y="808" width="60" height="56" rx="12" fill="#ffd100"/>
    <text x="1384" y="842" font-family="Inter, Noto Sans Thai, sans-serif" font-size="14" font-weight="700" fill="#242527" text-anchor="middle">ส่ง</text>
  </g>
</svg>
